<?xml version="1.0" encoding="UTF-8"?>
<svg version="1.1" xmlns="http://www.w3.org/2000/svg" width="100" height="100">
<path d="M0 0 C1.4787656 0.74317451 2.95190925 1.49768907 4.41796875 2.265625 C7.63848187 3.53036092 10.16695828 2.1016402 13.34765625 1.0234375 C20.75359889 0.26437967 27.25217917 0.41293744 33.34765625 5.0234375 C37.64434252 9.13331133 40.39919109 13.11635935 40.66015625 19.0859375 C40.34765625 23.0234375 40.34765625 23.0234375 38.97265625 24.9609375 C35.44254116 27.26908968 32.93062862 27.12719213 28.72265625 27.0859375 C27.53414063 27.07691406 26.345625 27.06789063 25.12109375 27.05859375 C24.20585938 27.04699219 23.290625 27.03539063 22.34765625 27.0234375 C22.01765625 25.3734375 21.68765625 23.7234375 21.34765625 22.0234375 C25.96765625 21.6934375 30.58765625 21.3634375 35.34765625 21.0234375 C33.43087656 14.74065962 31.77996893 11.75815246 26.34765625 8.0234375 C23.70324986 7.1419687 22.06704873 6.86168932 19.34765625 6.8359375 C18.32671875 6.81466797 18.32671875 6.81466797 17.28515625 6.79296875 C15.02151493 6.91403339 15.02151493 6.91403339 12.34765625 9.0234375 C12.63640625 9.5803125 12.92515625 10.1371875 13.22265625 10.7109375 C15.85696451 16.12590447 17.06235364 19.99955947 16.34765625 26.0234375 C14.6051228 29.25957104 13.87579681 29.84739065 10.34765625 31.0234375 C7.38409692 31.14484961 4.44483054 31.2116319 1.48046875 31.2265625 C0.60873016 31.23226257 -0.26300842 31.23796265 -1.16116333 31.24383545 C-3.00537911 31.25327933 -4.84961172 31.259817 -6.69384766 31.26367188 C-9.50974061 31.27337683 -12.32490334 31.30440536 -15.140625 31.3359375 C-16.93358942 31.34246793 -18.72655906 31.34771825 -20.51953125 31.3515625 C-21.35926483 31.3639093 -22.19899841 31.3762561 -23.06417847 31.38897705 C-27.74703289 31.37120485 -30.8555682 31.08208042 -34.65234375 28.0234375 C-36.71326943 23.90158615 -36.13723204 19.51409843 -34.7578125 15.2734375 C-33.77516542 12.82897268 -32.75132346 10.4176433 -31.65234375 8.0234375 C-36.68092574 6.3472435 -40.99264786 6.41701015 -45.90234375 8.2109375 C-51.26650435 11.74640699 -52.60299868 14.87540229 -54.65234375 21.0234375 C-47.72234375 21.5184375 -47.72234375 21.5184375 -40.65234375 22.0234375 C-40.98234375 23.6734375 -41.31234375 25.3234375 -41.65234375 27.0234375 C-43.73538913 27.07762076 -45.81884143 27.11631301 -47.90234375 27.1484375 C-49.0625 27.17164062 -50.22265625 27.19484375 -51.41796875 27.21875 C-54.49915508 27.03268802 -56.13093465 26.74039703 -58.65234375 25.0234375 C-60.27992963 21.76826575 -60.20153202 18.5407107 -59.65234375 15.0234375 C-57.08086438 9.11223596 -53.23452177 4.72283253 -47.36328125 1.9375 C-41.47663367 -0.04733506 -34.78954154 0.29896367 -28.96484375 2.2734375 C-25.22511567 3.12016839 -24.80977063 2.83506587 -21.58984375 1.1484375 C-15.03400958 -2.14628941 -6.90982025 -2.54411644 0 0 Z M-27.42578125 13.2421875 C-29.92808984 16.87611336 -31.12330266 19.54932789 -30.65234375 24.0234375 C-28.04928483 26.62649642 -26.22955836 26.27168728 -22.68334961 26.30133057 C-21.86874268 26.2972821 -21.05413574 26.29323364 -20.21484375 26.2890625 C-18.96102905 26.29193268 -18.96102905 26.29193268 -17.68188477 26.29486084 C-15.91324564 26.29622286 -14.14459652 26.29252526 -12.37597656 26.28417969 C-9.66318381 26.27348025 -6.95105331 26.28407426 -4.23828125 26.296875 C-2.52213395 26.29555341 -0.80598706 26.29299102 0.91015625 26.2890625 C1.72476318 26.29311096 2.53937012 26.29715942 3.37866211 26.30133057 C7.8347341 26.44909185 7.8347341 26.44909185 11.34765625 24.0234375 C11.11309166 17.92475819 9.25257992 13.91240005 4.92578125 9.609375 C-0.50565892 4.82186846 -4.98941067 3.53538793 -12.09375 3.71484375 C-18.89776218 4.53548033 -23.20578325 8.05559778 -27.42578125 13.2421875 Z " fill="#FFFFFF" transform="translate(59.65234375,52.9765625)"/>
<path d="M0 0 C3.65671794 2.05979682 6.82742347 4.89598214 8 9 C8.45042231 14.58523668 8.25122574 18.23153558 5 23 C1.47905697 26.26331306 -1.30393216 27.28814732 -6 27.5 C-10.69606784 27.28814732 -13.47905697 26.26331306 -17 23 C-20.04690171 18.53121083 -20.96005836 14.28559605 -20 9 C-15.42324266 0.33685217 -9.35888799 -2.3477074 0 0 Z M-13.875 8.75 C-15.59594712 12.19189423 -15.03958743 14.361444 -14 18 C-11.40320527 20.89357127 -9.83460553 21.86089908 -6 22.5 C-2.16539447 21.86089908 -0.59679473 20.89357127 2 18 C3.33660145 14.64407137 3.33660145 14.64407137 3 11 C0.83958094 7.5687462 -0.74001879 5.53549201 -4.5 3.9375 C-8.63941367 4.04098534 -10.93314567 6.00426929 -13.875 8.75 Z " fill="#FFFFFF" transform="translate(56,19)"/>
<path d="M0 0 C0.76183594 -0.00515625 1.52367187 -0.0103125 2.30859375 -0.015625 C4.83455175 0.28206156 6.4139108 0.90024524 8.5625 2.25 C10.89244555 5.6244039 11.83036926 8.26384741 11.5625 12.3125 C11.01010432 15.27949124 10.32858177 16.61219597 8.625 19.25 C4.29508422 22.0777001 0.59922235 22.16802329 -4.4375 21.25 C-7.37173195 19.45353146 -8.90955355 18.3058929 -10.4375 15.25 C-10.78782356 9.90756567 -10.8936069 6.60213461 -7.4375 2.25 C-4.32763793 0.17675862 -3.54641613 -0.02392186 0 0 Z M-2.4375 5.25 C-4.10596734 6.94495956 -4.10596734 6.94495956 -5.4375 9.25 C-5.19675978 12.62036311 -4.84951979 13.83798021 -2.4375 16.25 C0.51996492 16.83345476 0.51996492 16.83345476 3.5625 16.25 C5.73270292 14.16078244 5.73270292 14.16078244 6.5625 11.25 C5.86764736 8.46776622 5.86764736 8.46776622 4.5625 6.25 C2.2525 5.92 -0.0575 5.59 -2.4375 5.25 Z " fill="#FFFFFF" transform="translate(20.4375,28.75)"/>
<path d="M0 0 C3.49890004 2.11391877 4.70578686 3.11736059 6 7 C6.37066773 12.00401435 6.09881835 14.98301324 3 19 C-1.25040238 21.83360159 -5.01218939 21.75572888 -10 21 C-13.0656253 18.99795899 -14.47814172 17.59839611 -15.62109375 14.09765625 C-16.30931045 10.40115213 -16.07794778 8.22153581 -14.8125 4.625 C-11.16799596 -0.65324724 -6.00310136 -0.88815938 0 0 Z M-10 7 C-11.0146239 8.8064655 -11.0146239 8.8064655 -11 11 C-10.07976712 13.83928533 -10.07976712 13.83928533 -8 16 C-4.76070812 16.53988198 -2.92147852 16.53505204 -0.0625 14.875 C1.27406292 12.9136096 1.27406292 12.9136096 0.8125 9.9375 C0.23351637 6.90484132 0.23351637 6.90484132 -2 5 C-5.73296326 4.61713197 -6.77626323 4.85084215 -10 7 Z " fill="#FFFFFF" transform="translate(84,29)"/>
</svg>
