<?xml version="1.0" encoding="UTF-8"?>
<svg version="1.1" xmlns="http://www.w3.org/2000/svg" width="100" height="100">
<path d="M0 0 C3.02984845 2.41651881 4.48667344 3.86593581 5.9296875 7.5390625 C5.9296875 12.1590625 5.9296875 16.7790625 5.9296875 21.5390625 C-19.1503125 21.5390625 -44.2303125 21.5390625 -70.0703125 21.5390625 C-70.0703125 7.5390625 -70.0703125 7.5390625 -68.6953125 4.0390625 C-51.44224177 -12.39243343 -19.42448738 -13.27666982 0 0 Z M-61.0703125 10.5390625 C-61.0703125 11.1990625 -61.0703125 11.8590625 -61.0703125 12.5390625 C-41.9303125 12.5390625 -22.7903125 12.5390625 -3.0703125 12.5390625 C-5.42749693 7.82469364 -7.05983847 6.3510924 -11.875 4.40625 C-12.88820312 4.07882813 -13.90140625 3.75140625 -14.9453125 3.4140625 C-15.95335937 3.08148438 -16.96140625 2.74890625 -18 2.40625 C-31.30963841 -1.35296085 -51.33168871 -0.79315427 -61.0703125 10.5390625 Z " fill="#FFFFFF" transform="translate(82.0703125,66.4609375)"/>
<path d="M0 0 C4.44347897 2.50657788 7.04492749 5.72100766 8.8125 10.5 C9.76331943 16.42433643 9.30938712 21.48779513 5.8125 26.5 C1.39151207 30.83846282 -1.74759249 32.66622109 -7.9375 32.8125 C-13.21849209 32.76196419 -16.19389067 32.19408863 -20.1875 28.5 C-24.65315719 23.55156906 -25.61868717 19.66132145 -25.5234375 13.13671875 C-24.96295082 8.73755006 -23.22508215 5.69203548 -20.1875 2.5 C-13.90875156 -2.23918326 -7.20895105 -3.02965297 0 0 Z M-14.1875 10.5 C-16.50287595 13.31708195 -16.50287595 13.31708195 -16 16.5 C-15.002807 20.18332312 -15.002807 20.18332312 -12.1875 22.5 C-9.08779156 23.35736616 -7.03444533 23.75878885 -3.9375 22.8125 C-1.74092962 21.16507222 -0.99279388 20.13550724 -0.1875 17.5 C-0.37809172 14.3870019 -0.65462189 12.27267326 -2.4375 9.6875 C-6.97242914 6.61022665 -9.94926821 7.29268945 -14.1875 10.5 Z " fill="#FFFFFF" transform="translate(58.1875,13.5)"/>
</svg>
